<svg width="38" height="37" viewBox="0 0 38 37" fill="none" xmlns="http://www.w3.org/2000/svg">
<path d="M37.5137 34.8706C34.8664 33.7607 31.7837 32.9437 28.4999 32.4085V26.8922H35.6248C35.6343 26.8922 35.6454 26.8907 35.6565 26.8922C36.0935 26.8922 36.4482 26.5376 36.4482 26.1006C36.4482 25.8884 36.3642 25.6952 36.2281 25.5527L32.1463 18.0257H33.9576C34.2442 18.0257 34.5086 17.8705 34.6495 17.6203C34.7904 17.3702 34.7825 17.063 34.6321 16.8192L28.3827 6.68595C28.093 6.21887 27.3235 6.21887 27.0337 6.68595L20.7844 16.8192C20.634 17.063 20.6276 17.3702 20.767 17.6203C20.9063 17.8705 21.1707 18.0257 21.4589 18.0257H23.2702L21.4336 21.4124L16.9544 13.3802H19.3752C19.6634 13.3802 19.9294 13.2235 20.0687 12.9701C20.2081 12.7168 20.1986 12.4096 20.0434 12.1642L12.5432 0.343184C12.2519 -0.114395 11.4967 -0.114395 11.2053 0.343184L3.70675 12.1658C3.55158 12.4096 3.54208 12.7184 3.68141 12.9717C3.82074 13.225 4.08674 13.3818 4.37491 13.3818H6.7958L1.68327 22.5492C1.5471 22.7946 1.55027 23.0939 1.69118 23.3361C1.83527 23.5768 2.09493 23.7256 2.37518 23.7256H11.0834V32.1773C7.20587 32.6903 3.55475 33.5833 0.486279 34.8706C0.0825337 35.04 -0.107464 35.5039 0.0619505 35.9061C0.231365 36.3082 0.696861 36.5014 1.09744 36.3304C10.9678 32.19 27.0306 32.19 36.901 36.3304C37.0023 36.3731 37.1052 36.3921 37.2081 36.3921C37.5169 36.3921 37.8114 36.2101 37.9381 35.9061C38.1075 35.5039 37.9175 35.04 37.5137 34.8706ZM25.2794 16.8287C25.1369 16.5896 24.8789 16.4423 24.5986 16.4423H22.876L27.7082 8.60968L32.5389 16.4423H30.8163C30.5376 16.4423 30.2796 16.5896 30.1355 16.8287C29.9914 17.0678 29.9866 17.3654 30.1196 17.6108L34.2948 25.3089H21.1216L25.2953 17.6108C25.4283 17.3654 25.4235 17.0678 25.2794 16.8287ZM8.83511 12.9749C8.97127 12.7295 8.96811 12.4302 8.82719 12.188C8.68469 11.9457 8.42503 11.7969 8.14478 11.7969H5.81414L11.8751 2.24633L17.936 11.7985H15.6054C15.3251 11.7985 15.0655 11.9473 14.923 12.1896C14.7805 12.4318 14.7773 12.7311 14.915 12.9749L20.026 22.1423H3.72416L8.83511 12.9749ZM12.6667 31.9953V23.7256H20.1796L19.0966 25.7237C18.9636 25.9692 18.9683 26.2668 19.1124 26.5059C19.2565 26.745 19.513 26.8922 19.7917 26.8922H26.9166V32.1773C22.2949 31.5646 17.3549 31.5076 12.6667 31.9953Z" fill="#D9725C"/>
</svg>
