<svg id="Layer_1" data-name="Layer 1" xmlns="http://www.w3.org/2000/svg" width="48" height="48" viewBox="0 0 48 48"><defs><style>.cls-1{fill:none;stroke:#d9725c;stroke-linecap:round;stroke-linejoin:round;stroke-width:2px;}</style></defs><title>health-wellness-48x48</title><ellipse class="cls-1" cx="24" cy="24" rx="22.41" ry="22.367"/><path class="cls-1" d="M37.641,21.077H26.923V10.359a.974.974,0,0,0-.974-.974h-3.9a.974.974,0,0,0-.974.974V21.077H10.359a.974.974,0,0,0-.974.974v3.9a.974.974,0,0,0,.974.974H21.077V37.641a.974.974,0,0,0,.974.974h3.9a.974.974,0,0,0,.974-.974V26.923H37.641a.974.974,0,0,0,.974-.974v-3.9A.974.974,0,0,0,37.641,21.077Z"/></svg>