<svg id="Layer_1" data-name="Layer 1" xmlns="http://www.w3.org/2000/svg" width="48" height="48" viewBox="0 0 48 48"><defs><style>.cls-1,.cls-2{fill:none;stroke:#d9725c;stroke-linecap:round;stroke-width:2px;}.cls-1{stroke-linejoin:round;}.cls-2{stroke-miterlimit:10;}</style></defs><title>parental-leave-24x24</title><path class="cls-1" d="M24,11.385s5.09-5.524,11.379-5.524,11.379,5.607,11.379,12.533C46.758,32.249,34.051,31.3,24,43.462,13.949,31.3,1.242,32.249,1.242,18.394c0-6.928,5.09-12.533,11.379-12.533S24,11.385,24,11.385Z"/><circle class="cls-1" cx="24" cy="24.018" r="9.473"/><path class="cls-1" d="M25.227,14.628s-4.411,1.031-4.411,4.31,3.74,2.755,5.183,1.313"/><path class="cls-2" d="M19.274,24.212l.042-.027a2.136,2.136,0,0,1,2.41.027h0"/><path class="cls-2" d="M26.274,24.212l.041-.027a2.138,2.138,0,0,1,2.411.027h0"/><path class="cls-2" d="M21.791,28.459h0a4.551,4.551,0,0,0,4.416,0h0"/></svg>