<svg id="Layer_1" data-name="Layer 1" xmlns="http://www.w3.org/2000/svg" width="48" height="48" viewBox="0 0 48 48"><defs><style>.cls-1{fill:#d9725c;}</style></defs><title>stock-options48x48</title><path class="cls-1" d="M8.8,36.7a3.576,3.576,0,1,1,3.576-3.576A3.58,3.58,0,0,1,8.8,36.7Zm0-5.152a1.576,1.576,0,1,0,1.576,1.576A1.578,1.578,0,0,0,8.8,31.552Z"/><path class="cls-1" d="M19.1,24.679A3.576,3.576,0,1,1,22.677,21.1,3.58,3.58,0,0,1,19.1,24.679Zm0-5.152A1.576,1.576,0,1,0,20.677,21.1,1.578,1.578,0,0,0,19.1,19.527Z"/><path class="cls-1" d="M32.843,29.832a3.576,3.576,0,1,1,3.575-3.575A3.579,3.579,0,0,1,32.843,29.832Zm0-5.151a1.576,1.576,0,1,0,1.575,1.576A1.578,1.578,0,0,0,32.843,24.681Z"/><path class="cls-1" d="M43.149,16.091a3.576,3.576,0,1,1,3.577-3.575A3.579,3.579,0,0,1,43.149,16.091Zm0-5.151a1.576,1.576,0,1,0,1.577,1.576A1.578,1.578,0,0,0,43.149,10.94Z"/><path class="cls-1" d="M10.51,32.219A1,1,0,0,1,9.728,30.6L16.4,22.2a1,1,0,1,1,1.565,1.244l-6.673,8.4A1,1,0,0,1,10.51,32.219Z"/><path class="cls-1" d="M30.4,26.488a.989.989,0,0,1-.36-.067l-8.9-3.442a1,1,0,0,1,.721-1.866l8.9,3.443a1,1,0,0,1-.361,1.932Z"/><path class="cls-1" d="M34.4,25.218a1,1,0,0,1-.8-1.6l7.186-9.663a1,1,0,0,1,1.606,1.193l-7.187,9.663A1,1,0,0,1,34.4,25.218Z"/><path class="cls-1" d="M46.671,42.023H.974a1,1,0,0,1-1-1V4.371a1,1,0,1,1,2,0V40.023h44.7a1,1,0,0,1,0,2Z"/></svg>